<?xml version="1.0" encoding="utf-8"?>
<!-- Generator: Adobe Illustrator 26.0.2, SVG Export Plug-In . SVG Version: 6.00 Build 0)  -->
<svg version="1.1" id="Layer_1" xmlns="http://www.w3.org/2000/svg" xmlns:xlink="http://www.w3.org/1999/xlink" x="0px" y="0px"
	 viewBox="0 0 370 100" style="enable-background:new 0 0 370 100;" xml:space="preserve">
<style type="text/css">
	.st0{fill-rule:evenodd;clip-rule:evenodd;fill:#1D254A;}
	.st1{fill-rule:evenodd;clip-rule:evenodd;fill:#0B61DC;}
	.st2{fill-rule:evenodd;clip-rule:evenodd;fill:#080E51;}
	.st3{fill-rule:evenodd;clip-rule:evenodd;fill:url(#SVGID_1_);}
</style>
<path class="st0" d="M118.4,45.9c-4,0-7.3,3-7.3,8.2c0,5.2,3.3,8.3,7.3,8.3c4,0,7.2-3,7.2-8.3C125.7,48.9,122.5,45.9,118.4,45.9z
	 M103.4,77.4V42.1c0-1.5,1.2-2.7,2.6-2.7h5V43c1.3-2.3,4.6-4.2,9-4.2c8.5,0,13.5,6.5,13.5,15.2c0,8.9-5.5,15.4-13.8,15.4
	c-4,0-7-1.6-8.4-3.6v11.5c0,1.5-1.2,2.7-2.6,2.7H106C104.6,80,103.4,78.8,103.4,77.4z"/>
<path class="st0" d="M154.4,46.9c-0.9-0.2-1.7-0.2-2.4-0.2c-4,0-7.5,2-7.5,8.3v11.2c0,1.2-1,2.2-2.2,2.2h-3.5c-1.2,0-2.2-1-2.2-2.2
	V41.3c0-1.2,1-2.2,2.2-2.2h5.5v4.3c1.8-3.9,5.8-4.6,8.3-4.6c0.7,0,1.2,0.1,1.8,0.1V46.9z"/>
<path class="st0" d="M177.1,52.8c0-5.5-3.6-8.3-7.4-8.3c-3.9,0-7.4,2.8-7.4,8.3c0,5.5,3.6,8.3,7.4,8.3
	C173.6,61.1,177.1,58.3,177.1,52.8z M185,52.8c0,9-6.6,15.5-15.3,15.5c-8.7,0-15.3-6.5-15.3-15.5c0-9,6.6-15.5,15.3-15.5
	C178.4,37.3,185,43.7,185,52.8z"/>
<path class="st0" d="M203.7,40.1v3.8c0,0.9-0.7,1.6-1.6,1.6h-4.3v12.3c0,2.6,1.2,3.4,3.5,3.4c1,0,2-0.1,2.4-0.2v5.2
	c0,0.9-0.6,1.7-1.5,1.9c-0.8,0.2-1.8,0.3-3,0.3c-5.7,0-9.3-3.4-9.3-9.1V31.3c0-0.9,0.7-1.6,1.6-1.6h4.7c0.9,0,1.6,0.7,1.6,1.6v7.2
	h4.3C203,38.5,203.7,39.2,203.7,40.1z"/>
<path class="st0" d="M217.6,43.9c4.4-0.9,6.9,1.5,7.6,4.3l-12.8,2.7C212,48.2,213.5,44.7,217.6,43.9z M232.1,55.9l-2.9-0.2
	c-1-0.1-1.8,0.5-2.1,1.4c-0.7,2-2.3,3.6-5.2,4.2c-3.9,0.8-7.6-1.3-8.6-5l20.6-4.3c0-0.1-0.1-1.3-0.4-2.4c-1.9-9.2-8.4-13.8-17.3-12
	c-7.4,1.5-12.9,8.9-11,18.1c2,9.7,10.2,13.9,18,12.3c6-1.3,9.6-5.1,10.8-9.5C234.3,57.2,233.4,56,232.1,55.9z"/>
<path class="st0" d="M253.3,51.4l8.6,12.2c1.4,2,0,4.8-2.5,4.8h-2.3c-1,0-1.9-0.5-2.5-1.3l-6.8-9.9l-3.3,3.4v4.7c0,1.7-1.4,3-3,3
	h-1.8c-1.7,0-3-1.4-3-3v-37c0-1.7,1.4-3,3-3h1.8c1.7,0,3,1.4,3,3v21.7l9.2-9.9c0.6-0.6,1.4-1,2.2-1h2c2.7,0,4,3.2,2.2,5.1
	L253.3,51.4z"/>
<path class="st0" d="M283.4,51.4l8.6,12.2c1.4,2,0,4.8-2.5,4.8h-2.3c-1,0-1.9-0.5-2.5-1.3l-6.8-9.9l-3.3,3.4v4.7c0,1.7-1.4,3-3,3
	h-1.8c-1.7,0-3-1.4-3-3v-37c0-1.7,1.4-3,3-3h1.8c1.7,0,3,1.4,3,3v21.7l9.2-9.9c0.6-0.6,1.4-1,2.2-1h2c2.7,0,4,3.2,2.2,5.1
	L283.4,51.4z"/>
<path class="st1" d="M35.5,76.1h30.7V45.4H35.5V76.1z M69.3,82.3H32.5c-1.7,0-3.1-1.4-3.1-3.1V42.3c0-1.7,1.4-3.1,3.1-3.1h36.8
	c1.7,0,3.1,1.4,3.1,3.1v36.9C72.4,80.9,71,82.3,69.3,82.3z"/>
<path class="st2" d="M14,60.8h36.8V23.9H14V60.8z M53.9,66.9H11c-1.7,0-3.1-1.4-3.1-3.1V20.8c0-1.7,1.4-3.1,3.1-3.1h43
	c1.7,0,3.1,1.4,3.1,3.1v43.1C57,65.5,55.6,66.9,53.9,66.9z"/>
<linearGradient id="SVGID_1_" gradientUnits="userSpaceOnUse" x1="285.0121" y1="47.6921" x2="362.1098" y2="47.6921">
	<stop  offset="0" style="stop-color:#0057CD"/>
	<stop  offset="0.3345" style="stop-color:#106DE2"/>
	<stop  offset="0.733" style="stop-color:#1F82F4"/>
	<stop  offset="1" style="stop-color:#2489FB"/>
</linearGradient>
<path class="st3" d="M362.1,38.9v8c-0.9-0.2-1.7-0.2-2.4-0.2c-4,0-7.5,2-7.5,8.3v10.9c0,1.4-1.1,2.5-2.5,2.5h-2.9
	c-1.4,0-2.5-1.1-2.5-2.5V41.5c0-1.4,1.1-2.5,2.5-2.5h5.2v4.3c1.8-3.9,5.8-4.6,8.3-4.6C360.9,38.8,361.5,38.9,362.1,38.9z
	 M316.8,34.7h-8.4c-1.3,0-2.3,1-2.3,2.3v29c0,1.3-1,2.3-2.3,2.3h-3.5c-1.3,0-2.3-1-2.3-2.3V37c0-1.3-1-2.3-2.3-2.3h-8.4
	c-1.3,0-2.3-1-2.3-2.3v-3c0-1.3,1-2.3,2.3-2.3h29.5c1.3,0,2.3,1,2.3,2.3v3C319.1,33.7,318.1,34.7,316.8,34.7z M325.9,61.1
	c-3.9,0-7.4-2.9-7.4-8.3c0-5.5,3.6-8.3,7.4-8.3c3.9,0,7.4,2.8,7.4,8.3S329.7,61.1,325.9,61.1z M325.9,37.3
	c-8.7,0-15.3,6.5-15.3,15.5c0,9,6.6,15.5,15.3,15.5c8.7,0,15.3-6.5,15.3-15.5C341.2,43.7,334.6,37.3,325.9,37.3z"/>
</svg>
